<svg xmlns="http://www.w3.org/2000/svg" width="20.904" height="20" viewBox="0 0 20.904 20">
  <path id="icons8-communication" d="M9.977,3C5.578,3,2,6.205,2,10.144A6.836,6.836,0,0,0,4.216,15.11c.021.021.1.083.1.083.1.08.2.158.282.222a4.158,4.158,0,0,1-2.173,2.131c-.376.137-.5.485-.36.661.213.268.863.243,1.488.243a11.667,11.667,0,0,0,4.672-1.508,8.422,8.422,0,0,0,1.68.149c4.487,0,8-3.052,8-6.948C17.911,6.205,14.352,3,9.977,3ZM6.091,7.091h7.728V8H6.091Zm0,2.273h7.728v.909H6.091ZM18.722,11.27a7.267,7.267,0,0,1-1.266,3.1H18.82v.909H16.7a8.452,8.452,0,0,1-1.717,1.364H18.82v.909h-5.9a10.42,10.42,0,0,1-4.274.382c.845,2.23,3.55,3.709,7.044,3.709a9.254,9.254,0,0,0,1.39-.094A5.526,5.526,0,0,0,21.107,23c1.547-.046,1.783-.511,1.8-.678.037-.376-1.6-.485-2.362-1.706.126-.089.272-.194.366-.266a5.143,5.143,0,0,0,2-3.933C22.9,14.185,21.236,12.195,18.722,11.27Zm-12.631.368h5.455v.909H6.091Z" transform="translate(-2 -3)" fill="#465e7d"/>
</svg>
